# xmcd
#
# Track frame offsets: 
#        150
#        12762
#        28385
#        45581
#        60903
#        78207
#        93942
#        111508
#        128697
#        146785
#        163719
#        180296
#        193296
#        210919
#        227118
#        243087
#        256275
#        272972
#        290982
#        307066
#        324221
#        345628
#
# Disc length: 4837 seconds
#
# Revision: 0
# Processed by: cddbd v1.5.2PL0 Copyright (c) Steve Scherf et al.
# Submitted via: ExactAudioCopyFreeDBPlugin 1.0
#
DISCID=3912e316
DTITLE=Various Artist - The best of Firstclass
DYEAR=2018
DGENRE=No, thanks.
TTITLE0=Eric Prydz - Call On Me (Radio Edit)
TTITLE1=Michi Lange - Brothers and Sisters (Radio Mix)
TTITLE2=Kylie Minogue - Can't Get You Out Of My Head
TTITLE3=The Bucketheads - The Bomb! (These Sounds Fall Into My Mind) (
TTITLE3=Radio Edit)
TTITLE4=Nalin and Kane - Beachball (Vocal Radio Edit)
TTITLE5=Afro Medusa - Pasilda (Knee Deep Mix)
TTITLE6=Funkstar De Luxe - Sun Is Shining (De Luxe Edit)
TTITLE7=Milk and Sugar - Higher and Higher (Radio Edit)
TTITLE8=Tom Novy - Now Or Never (Radio Edit)
TTITLE9=Crystal Waters - Gypsy Woman (La Da Dee La Da Da)
TTITLE10=Gusto - Disco's Revenge (Mole Hole Radio Edit)
TTITLE11=Portugal. The Man - Feel It Still (Ofenbach Remix)
TTITLE12=Everything But The Girl - Missing (Todd Terry Remix)
TTITLE13=Moloko - Sing It Back (Boris Radio Edit)
TTITLE14=Wamdue Project - King Of My Castle (Roy Malone's King Radio E
TTITLE14=dit)
TTITLE15=Axwell - (Can You) Feel The Vibe (Radio Edit)
TTITLE16=Livin' Joy - Dreamer (Radio Edit)
TTITLE17=Jamiroquai - Space Cowboy (Classic Radio)
TTITLE18=Todd Terry - Something Goin' On (Tee's Radio Edit)
TTITLE19=Needin' U (Radio Edit) - Various Artists
TTITLE20=Duke Dumont - I Got U
TTITLE21=Boogie Pimps - Somebody To Love (Salt Shaker Radio Mix)
EXTD=
EXTT0=
EXTT1=
EXTT2=
EXTT3=
EXTT4=
EXTT5=
EXTT6=
EXTT7=
EXTT8=
EXTT9=
EXTT10=
EXTT11=
EXTT12=
EXTT13=
EXTT14=
EXTT15=
EXTT16=
EXTT17=
EXTT18=
EXTT19=
EXTT20=
EXTT21=
PLAYORDER=
